<svg xmlns="http://www.w3.org/2000/svg" width="125" height="40" viewBox="0 0 125 40">
  <path fill="#05c" d="M28.87,19.8a5.21,5.21,0,0,1,2.47-4.37,5.31,5.31,0,0,0-4.18-2.28c-1.75-.18-3.46,1.06-4.35,1.06s-2.29-1-3.78-1a5.57,5.57,0,0,0-4.68,2.88c-2,3.53-.51,8.72,1.43,11.57,1,1.4,2.1,3,3.58,2.9s2-.93,3.75-.93,2.24.93,3.75.9,2.54-1.4,3.48-2.82a11.75,11.75,0,0,0,1.59-3.26,5,5,0,0,1-3.06-4.64ZM26,11.28A5.18,5.18,0,0,0,27.18,7.6a5.13,5.13,0,0,0-3.35,1.75,4.83,4.83,0,0,0-1.2,3.54A4.25,4.25,0,0,0,26,11.28ZM49.87,30.35h-2l-1.11-3.51H42.87l-1.06,3.51h-2l3.82-12H46l3.84,12Zm-3.47-5-1-3.13q-.16-.48-.6-2.25h0c-.18.75-.37,1.5-.56,2.25l-1,3.13Zm13.31.57a5,5,0,0,1-1.18,3.48,3.46,3.46,0,0,1-2.63,1.14,2.62,2.62,0,0,1-2.43-1.23h0v4.55h-1.9V24.56c0-.92,0-1.87-.07-2.84h1.67l.1,1.37h0a3.37,3.37,0,0,1,4.66-1,3.24,3.24,0,0,1,.76.67,4.8,4.8,0,0,1,1,3.18ZM57.77,26a3.58,3.58,0,0,0-.57-2.08,1.92,1.92,0,0,0-1.65-.85,2,2,0,0,0-1.28.47,2.17,2.17,0,0,0-.75,1.23,3,3,0,0,0-.09.59V26.8A2.32,2.32,0,0,0,54,28.39a1.9,1.9,0,0,0,1.49.65,2,2,0,0,0,1.68-.84A3.79,3.79,0,0,0,57.77,26Zm11.79-.07a4.91,4.91,0,0,1-1.18,3.48,3.46,3.46,0,0,1-2.63,1.14,2.61,2.61,0,0,1-2.43-1.23h0v4.55h-1.9V24.56c0-.92,0-1.87-.08-2.84H63l.1,1.37h0a3.37,3.37,0,0,1,4.66-1,3.45,3.45,0,0,1,.76.67,4.74,4.74,0,0,1,1,3.18ZM67.62,26a3.64,3.64,0,0,0-.56-2.08,1.93,1.93,0,0,0-1.66-.85,2,2,0,0,0-1.28.47,2.23,2.23,0,0,0-.75,1.23,2.39,2.39,0,0,0-.08.59V26.8a2.28,2.28,0,0,0,.57,1.59,1.88,1.88,0,0,0,1.49.65A2,2,0,0,0,67,28.2a3.65,3.65,0,0,0,.6-2.2Zm13,1a3.19,3.19,0,0,1-1.06,2.49,4.66,4.66,0,0,1-3.23,1.05,5.62,5.62,0,0,1-3.08-.75l.44-1.6A5.14,5.14,0,0,0,76.4,29a2.54,2.54,0,0,0,1.68-.49,1.6,1.6,0,0,0,.6-1.3,1.67,1.67,0,0,0-.5-1.23A4.45,4.45,0,0,0,76.54,25q-3.12-1.17-3.12-3.43a3.06,3.06,0,0,1,1.1-2.42,4.26,4.26,0,0,1,2.91-.95,5.74,5.74,0,0,1,2.7.57l-.48,1.56a4.73,4.73,0,0,0-2.27-.55,2.33,2.33,0,0,0-1.57.5,1.45,1.45,0,0,0-.48,1.09,1.49,1.49,0,0,0,.55,1.17,6,6,0,0,0,1.73.92,5.92,5.92,0,0,1,2.25,1.46A3.1,3.1,0,0,1,80.59,27Zm6.29-3.84h-2.1v4.19c0,1.07.37,1.6,1.11,1.6a3,3,0,0,0,.85-.09l0,1.46a4.35,4.35,0,0,1-1.48.21,2.28,2.28,0,0,1-1.76-.69,3.41,3.41,0,0,1-.63-2.33V23.15H81.66V21.71h1.25V20.13l1.87-.57v2.15h2.1v1.45ZM96.34,26a4.77,4.77,0,0,1-1.13,3.27,4,4,0,0,1-3.14,1.31,3.8,3.8,0,0,1-3-1.26A4.61,4.61,0,0,1,88,26.11a4.73,4.73,0,0,1,1.16-3.29,4,4,0,0,1,3.11-1.28,3.92,3.92,0,0,1,3,1.26A4.53,4.53,0,0,1,96.34,26Zm-2,.06A3.89,3.89,0,0,0,93.85,24a1.87,1.87,0,0,0-1.7-1,1.9,1.9,0,0,0-1.75,1,3.93,3.93,0,0,0-.51,2.09,3.85,3.85,0,0,0,.51,2,2,2,0,0,0,2.62.82,2,2,0,0,0,.82-.83A4,4,0,0,0,94.37,26Zm8.16-2.63a3,3,0,0,0-.6,0,1.78,1.78,0,0,0-1.55.76,2.88,2.88,0,0,0-.48,1.71v4.53H98l0-5.92c0-1,0-1.9-.07-2.72H99.6l.07,1.65h.06a3,3,0,0,1,1-1.36,2.3,2.3,0,0,1,1.38-.47,2.49,2.49,0,0,1,.47,0ZM111,25.62a4.26,4.26,0,0,1-.07.87h-5.71a2.52,2.52,0,0,0,.83,2,2.8,2.8,0,0,0,1.87.6,6.29,6.29,0,0,0,2.31-.41l.3,1.33a6.9,6.9,0,0,1-2.87.53,4.09,4.09,0,0,1-3.13-1.18,4.34,4.34,0,0,1-1.14-3.16,5,5,0,0,1,1.06-3.25,3.64,3.64,0,0,1,3-1.39,3.19,3.19,0,0,1,2.8,1.39,4.76,4.76,0,0,1,.75,2.72Zm-1.81-.5a2.69,2.69,0,0,0-.37-1.47,1.66,1.66,0,0,0-1.52-.8,1.81,1.81,0,0,0-1.52.78,2.86,2.86,0,0,0-.56,1.49ZM45.77,11a3,3,0,0,1-1,2.39,3.68,3.68,0,0,1-2.48.74A10.39,10.39,0,0,1,41,14.07V8.28a10.81,10.81,0,0,1,1.61-.12,3.46,3.46,0,0,1,2.31.67A2.73,2.73,0,0,1,45.77,11Zm-1,0a2.2,2.2,0,0,0-.54-1.58,2.13,2.13,0,0,0-1.58-.55A4.77,4.77,0,0,0,41.9,9v4.4a3.39,3.39,0,0,0,.64,0,2.19,2.19,0,0,0,1.65-.6A2.45,2.45,0,0,0,44.78,11Zm6.22.9a2.36,2.36,0,0,1-.56,1.61,2,2,0,0,1-1.54.65,1.93,1.93,0,0,1-1.48-.62A2.25,2.25,0,0,1,46.88,12a2.27,2.27,0,0,1,.56-1.61A2,2,0,0,1,49,9.76a2,2,0,0,1,1.49.62A2.26,2.26,0,0,1,51,11.93Zm-1,0a1.93,1.93,0,0,0-.25-1,.92.92,0,0,0-.84-.51.94.94,0,0,0-.86.51,1.91,1.91,0,0,0-.25,1,1.9,1.9,0,0,0,.25,1,1,1,0,0,0,1.69,0A1.92,1.92,0,0,0,50,12Zm8-2.12-1.32,4.25h-.85l-.55-1.85c-.13-.45-.25-.9-.34-1.37h0a10.16,10.16,0,0,1-.34,1.37L54,14.09h-.87L51.91,9.84h1l.47,2c.12.48.21.93.29,1.36h0A13.25,13.25,0,0,1,54,11.87l.6-2h.77l.57,2a13.39,13.39,0,0,1,.33,1.4h0a13.37,13.37,0,0,1,.29-1.4l.51-2Zm4.85,4.25h-.93V11.66c0-.75-.29-1.13-.85-1.13a.89.89,0,0,0-.68.31,1.14,1.14,0,0,0-.26.73v2.52h-.93v-3c0-.37,0-.78,0-1.22H60l0,.67h0a1.33,1.33,0,0,1,.49-.51,1.5,1.5,0,0,1,.85-.24,1.31,1.31,0,0,1,1,.38,1.87,1.87,0,0,1,.49,1.41v2.54Zm2.58,0h-.93V7.9h.93v6.19ZM71,11.93a2.31,2.31,0,0,1-.55,1.61,2,2,0,0,1-1.54.64,1.85,1.85,0,0,1-1.48-.62A2.28,2.28,0,0,1,66.83,12a2.3,2.3,0,0,1,.56-1.61,2.14,2.14,0,0,1,3,0A2.26,2.26,0,0,1,71,11.93Zm-1,0a2,2,0,0,0-.25-1A1,1,0,0,0,68,11a2,2,0,0,0-.25,1A1.93,1.93,0,0,0,68,13a.94.94,0,0,0,.85.51.93.93,0,0,0,.84-.52A1.88,1.88,0,0,0,70,12Zm5.5,2.13h-.84l-.07-.49h0a1.42,1.42,0,0,1-1.23.58,1.24,1.24,0,0,1-1-.38,1.19,1.19,0,0,1-.33-.86,1.33,1.33,0,0,1,.64-1.19,3.4,3.4,0,0,1,1.82-.4v-.08c0-.56-.29-.84-.88-.84a1.89,1.89,0,0,0-1.1.32l-.19-.62a2.64,2.64,0,0,1,1.45-.37c1.1,0,1.65.59,1.65,1.76v1.56a5.71,5.71,0,0,0,.06,1Zm-1-1.46V12c-1,0-1.55.26-1.55.85a.65.65,0,0,0,.18.5.71.71,0,0,0,.46.17,1,1,0,0,0,.57-.2.82.82,0,0,0,.34-.67Zm6.29,1.46H80l0-.68h0a1.39,1.39,0,0,1-1.35.77,1.57,1.57,0,0,1-1.27-.6,2.36,2.36,0,0,1-.5-1.56,2.49,2.49,0,0,1,.55-1.67,1.66,1.66,0,0,1,1.3-.59,1.24,1.24,0,0,1,1.18.58h0V7.9h.94v5c0,.42,0,.8,0,1.15Zm-1-1.79v-.71a1.08,1.08,0,0,0-.37-.87.93.93,0,0,0-.62-.23,1,1,0,0,0-.82.42,1.74,1.74,0,0,0-.3,1.08A1.68,1.68,0,0,0,78,13a1,1,0,0,0,.82.42,1,1,0,0,0,.74-.35,1.18,1.18,0,0,0,.27-.78Zm9-.37a2.36,2.36,0,0,1-.55,1.61,2,2,0,0,1-1.55.64,1.83,1.83,0,0,1-1.47-.62A2.23,2.23,0,0,1,84.68,12a2.26,2.26,0,0,1,.57-1.61,2.12,2.12,0,0,1,3,0,2.26,2.26,0,0,1,.54,1.55Zm-1,0a1.93,1.93,0,0,0-.25-1,.92.92,0,0,0-.84-.51,1,1,0,0,0-.86.51,2.19,2.19,0,0,0,0,2,1,1,0,0,0,1.29.39,1,1,0,0,0,.4-.4A1.92,1.92,0,0,0,87.83,12Zm6,2.13h-.94V11.66c0-.75-.28-1.12-.85-1.12a.82.82,0,0,0-.67.3,1.11,1.11,0,0,0-.26.73v2.52h-.94v-3c0-.37,0-.78,0-1.22H91l0,.67h0a1.31,1.31,0,0,1,.48-.51,1.52,1.52,0,0,1,.85-.24,1.32,1.32,0,0,1,1,.38,1.87,1.87,0,0,1,.49,1.41v2.54Zm6.3-3.54h-1v2.06c0,.53.18.79.55.79a1.84,1.84,0,0,0,.41,0l0,.71a2,2,0,0,1-.73.11,1.11,1.11,0,0,1-.86-.34,1.64,1.64,0,0,1-.32-1.15V10.55h-.61V9.84h.61V9.07l.92-.28V9.84h1v.71Zm5,3.54h-.93V11.68c0-.76-.29-1.14-.85-1.14a.88.88,0,0,0-.89.66,1.27,1.27,0,0,0,0,.34v2.55h-.93V7.9h.93v2.56h0a1.41,1.41,0,0,1,1.27-.7,1.29,1.29,0,0,1,1,.38,2,2,0,0,1,.47,1.42v2.53Zm5.11-2.32a2,2,0,0,1,0,.42h-2.81a1.23,1.23,0,0,0,.41,1,1.34,1.34,0,0,0,.92.3,2.9,2.9,0,0,0,1.13-.2l.15.66a3.6,3.6,0,0,1-1.41.26,2,2,0,0,1-1.54-.58,2.12,2.12,0,0,1-.56-1.56,2.46,2.46,0,0,1,.52-1.6,1.78,1.78,0,0,1,1.47-.68,1.57,1.57,0,0,1,1.38.68,2.29,2.29,0,0,1,.37,1.34Zm-.89-.25a1.31,1.31,0,0,0-.18-.72.83.83,0,0,0-.74-.4.9.9,0,0,0-.75.39,1.4,1.4,0,0,0-.28.73Z"/>
</svg>
