<svg xmlns="http://www.w3.org/2000/svg" width="125" height="40" viewBox="0 0 125 40">
  <path fill="#05c" d="M22.94,19.49l3-3c-1.62-1-12-6.67-12.67-7-.1-.1-.29-.1-.38-.19ZM12.08,9.3a1.28,1.28,0,0,0-.47,1.14v19a1.27,1.27,0,0,0,.47,1.14L22.46,19.87ZM22.94,20.44l-10,10.19c.1,0,.19-.1.29-.1.66-.38,7.61-4.29,12.57-7Zm7.81-1.34c-.29-.19-2-1.14-4.19-2.38L23.42,20l3,3.14c2.38-1.33,4.1-2.29,4.29-2.38.48-.28,1.05-1,0-1.62Zm14.16-7.74a2.43,2.43,0,0,1-.63,1.8,2.78,2.78,0,0,1-3.92,0,2.6,2.6,0,0,1-.8-2,2.75,2.75,0,0,1,2.76-2.79,4.89,4.89,0,0,1,1.07.18,2,2,0,0,1,.8.63l-.45.45A1.63,1.63,0,0,0,42.32,9a1.77,1.77,0,0,0-1.43.63,1.85,1.85,0,0,0-.63,1.53,1.86,1.86,0,0,0,.64,1.53,2.29,2.29,0,0,0,1.42.63,2,2,0,0,0,1.52-.63,1.5,1.5,0,0,0,.45-1.08h-2v-.72h2.59ZM49,9.11H46.61v1.71h2.23v.63H46.61v1.71H49v.63H45.9V8.39H49ZM52,13.79h-.71V9.11H49.73V8.48H53.4v.63H51.87v4.68Zm4.11,0V8.39h.71v5.4Zm3.75,0h-.71V9.11H57.59V8.48h3.66v.63H59.73v4.68Zm8.48-.72a2.79,2.79,0,0,1-3.93,0,2.68,2.68,0,0,1-.8-2,2.68,2.68,0,0,1,.8-2,2.79,2.79,0,0,1,3.93,0,2.68,2.68,0,0,1,.8,2,2.68,2.68,0,0,1-.8,2Zm-3.39-.45a2.09,2.09,0,0,0,1.43.63,1.79,1.79,0,0,0,1.43-.63,2.2,2.2,0,0,0,.63-1.53,1.85,1.85,0,0,0-.63-1.53,2.09,2.09,0,0,0-1.43-.63,1.79,1.79,0,0,0-1.43.63,2.19,2.19,0,0,0,0,3.06Zm5.18,1.17V8.39h.8l2.59,4.14h0v-4h.72v5.4h-.72L70.71,9.47h0v4.32Zm-6.61,7.83a3.78,3.78,0,1,0,3.84,3.78,3.86,3.86,0,0,0-3.84-3.78Zm0,6.12a2.22,2.22,0,0,1-2.14-2.31v0a2.23,2.23,0,0,1,2.11-2.34h0a2.18,2.18,0,0,1,2.15,2.2.71.71,0,0,1,0,.14,2.28,2.28,0,0,1-2.14,2.34Zm-8.39-6.12a3.78,3.78,0,1,0,.12,0Zm0,6.12a2.23,2.23,0,0,1-2.15-2.31v0a2.22,2.22,0,0,1,2.1-2.34h0a2.18,2.18,0,0,1,2.15,2.2.71.71,0,0,1,0,.14,2.23,2.23,0,0,1-2.11,2.34Zm-9.91-4.95v1.62H49a3.7,3.7,0,0,1-.9,2.07,3.9,3.9,0,0,1-2.94,1.17A4.18,4.18,0,0,1,41,23.5a1,1,0,0,1,0-.17A4.22,4.22,0,0,1,45.11,19h.07a4.4,4.4,0,0,1,2.94,1.17L49.28,19a5.67,5.67,0,0,0-4-1.62,5.94,5.94,0,1,0-.09,11.88,5.22,5.22,0,0,0,5.53-5.4,3.3,3.3,0,0,0-.09-1H45.18Zm40.53,1.26a3.53,3.53,0,0,0-6.87,1.35,3.68,3.68,0,0,0,3.57,3.78h.18a3.83,3.83,0,0,0,3.21-1.71l-1.34-.9a2.15,2.15,0,0,1-1.87,1.08,2,2,0,0,1-1.88-1.17l5.09-2.07Zm-5.18,1.26a2.18,2.18,0,0,1,2-2.25,1.55,1.55,0,0,1,1.42.81ZM76.43,29h1.7V17.84h-1.7Zm-2.77-6.57h0a2.9,2.9,0,0,0-2-.81A3.83,3.83,0,0,0,68,25.4a3.77,3.77,0,0,0,3.66,3.78,2.27,2.27,0,0,0,2-.9h.09v.54a2,2,0,0,1-3.93.9l-1.43.63a3.7,3.7,0,0,0,3.4,2.25c2,0,3.66-1.17,3.66-4V21.89H73.75v.54Zm-1.88,5.31a2.2,2.2,0,0,1-2.14-2.25,2.23,2.23,0,0,1,2.11-2.34h0a2.14,2.14,0,0,1,2.06,2.25v.09A2.25,2.25,0,0,1,71.78,27.74Zm21.79-9.9h-4V29h1.7V24.77h2.32A3.47,3.47,0,1,0,94,17.84a2.41,2.41,0,0,0-.38,0Zm.09,5.4H91.25V19.37h2.41a1.9,1.9,0,0,1,2,1.86v0A2,2,0,0,1,93.66,23.24Zm10.27-1.62a3,3,0,0,0-3,1.71l1.52.63a1.58,1.58,0,0,1,1.52-.81,1.62,1.62,0,0,1,1.78,1.44v.09a3.57,3.57,0,0,0-1.78-.45c-1.61,0-3.22.9-3.22,2.52a2.57,2.57,0,0,0,2.67,2.44h.1a2.37,2.37,0,0,0,2.14-1.08h.09V29h1.61V24.68C107.32,22.7,105.9,21.62,103.93,21.62Zm-.18,6.12c-.54,0-1.34-.27-1.34-1,0-.9,1-1.17,1.79-1.17a3.46,3.46,0,0,1,1.51.36,2,2,0,0,1-2,1.8Zm9.46-5.85-1.87,4.86h-.09l-2-4.86H107.5l2.94,6.75-1.7,3.78h1.79l4.55-10.53ZM98.21,29h1.7V17.84h-1.7Z"/>
</svg>
