<?xml version="1.0" encoding="UTF-8"?>
<svg width="120px" height="122px" viewBox="0 0 120 122" version="1.1" xmlns="http://www.w3.org/2000/svg" xmlns:xlink="http://www.w3.org/1999/xlink">
    <g id="Page-1" stroke="none" stroke-width="1" fill="none" fill-rule="evenodd">
        <g id="logo" fill-rule="nonzero">
            <path d="M10.03125,90.75 C5.0625,85.5 1.21875,78.84375 0.28125,71.0625 C-0.75,62.34375 1.96875,54.1875 6.5625,47.53125 C21.375,26.15625 42.5625,9.28125 68.625,1.6875 C75.75,-0.375 83.53125,-0.1875 90.84375,3 C98.15625,6.09375 103.6875,11.625 107.0625,18.1875 C119.53125,42.28125 121.875,69.28125 116.625,94.6875 C115.03125,102.65625 110.90625,110.15625 103.875,115.40625 C97.59375,120.09375 90.1875,121.78125 82.875,121.875 C58.59375,122.34375 27.1875,108.65625 10.03125,90.75 Z" id="Shape" fill="#00C3FF"></path>
            <path d="M9.375,83.4375 C5.15625,77.8125 2.25,71.0625 2.25,63.5625 C2.25,55.125 5.71875,47.625 10.875,41.8125 C27.46875,23.0625 49.59375,9.28125 75.46875,5.0625 C82.5,3.9375 89.90625,4.96875 96.5625,8.8125 C103.21875,12.65625 107.90625,18.5625 110.34375,25.21875 C119.625,49.6875 118.78125,75.75 110.8125,99.46875 C108.375,106.875 103.59375,113.625 96.28125,117.84375 C89.71875,121.59375 82.40625,122.34375 75.46875,121.59375 C52.21875,119.25 23.625,102.5625 9.375,83.4375 Z" id="Shape" fill="#0E0E2B"></path>
            <polygon id="Shape" fill="#00C3FF" points="94.875 70.03125 103.03125 64.59375 101.71875 62.53125 65.15625 87 66.46875 89.0625 92.625 71.625 75.375 89.625 77.15625 91.3125 82.6875 85.40625 76.3125 99.375 78.46875 100.40625 85.59375 85.03125 83.90625 84.28125 96.1875 71.25"></polygon>
            <g id="Group" transform="translate(33.750000, 37.500000)" fill="#FFFFFF">
                <path d="M49.3125,22.78125 L55.03125,22.78125 L56.4375,17.625 L50.71875,17.625 L53.53125,7.125 L47.71875,7.125 L42.09375,28.03125 L29.15625,28.03125 C23.8125,28.03125 22.40625,24.75 23.25,20.25 C24.09375,15.75 28.125,12.09375 32.0625,12 C35.25,12 36.84375,13.875 36.84375,16.03125 C36.84375,16.59375 36.75,17.25 36.65625,17.53125 L29.4375,17.53125 L28.03125,22.6875 L41.15625,22.6875 C41.8125,20.90625 42.375,18.5625 42.375,16.78125 C42.375,11.34375 38.8125,7.03125 32.34375,7.03125 C23.625,7.03125 17.625,14.8125 17.625,22.21875 C17.625,28.96875 22.03125,33.1875 28.96875,33.1875 C29.0625,33.1875 29.0625,33.1875 29.15625,33.1875 L40.78125,33.1875 C39.75,36.9375 42.09375,40.03125 45.75,40.125 L50.53125,40.125 L51.9375,34.875 L47.8125,34.875 C46.96875,34.78125 46.40625,34.03125 46.6875,33.1875 L49.3125,22.78125 Z" id="Shape"></path>
                <path d="M15.09375,0.1875 L14.8125,0.1875 L9,0.1875 L7.59375,5.4375 L13.40625,5.4375 L8.0625,25.21875 C7.40625,27.09375 5.90625,28.21875 3.65625,28.03125 L1.5,28.03125 L0.09375,33.28125 L2.15625,33.28125 C4.96875,33.375 8.15625,33.09375 10.59375,30.65625 L10.6875,30.5625 C12.09375,29.15625 13.3125,27.375 13.875,25.125 L20.53125,0.1875 L15.09375,0.1875 Z" id="Shape"></path>
            </g>
        </g>
    </g>
</svg>
