<svg xmlns="http://www.w3.org/2000/svg" viewBox="0 0 193 40" fill="#05c">
<path d="M76.2,9.7h2.9l3.4,14.1,3.4-12.9a2,2,0,0,1,2.2-1.5,2.3,2.3,0,0,1,1.4.4,1.78,1.78,0,0,1,.8,1.1l3.4,12.9L97.1,9.7H100L96.1,26.1a2,2,0,0,1-2.2,1.6,2.46,2.46,0,0,1-2.5-2L88.2,13.3,84.9,25.7a2.52,2.52,0,0,1-1.5,1.8,3.55,3.55,0,0,1-1,.2,2,2,0,0,1-2.3-1.6Zm25.5,0h2.9L108,23.8l3.4-12.9a2,2,0,0,1,2.2-1.5,2.3,2.3,0,0,1,1.4.4,1.78,1.78,0,0,1,.8,1.1l3.4,12.9,3.4-14.1h2.9l-3.9,16.4a2,2,0,0,1-2.2,1.6,2.46,2.46,0,0,1-2.5-2l-3.2-12.4-3.3,12.4a2.52,2.52,0,0,1-1.5,1.8,3.55,3.55,0,0,1-1,.2,2,2,0,0,1-2.3-1.6Zm26,23.5v-19a4.46,4.46,0,0,1,1.2-3.3,4.55,4.55,0,0,1,3.4-1.2h5.6a4.79,4.79,0,0,1,2.9.7,4.23,4.23,0,0,1,1.8,3.5v8.5a5.24,5.24,0,0,1-1.1,3.3,4.51,4.51,0,0,1-3.4,1.7h-7.4v5.8Zm2.9-10.5a2.23,2.23,0,0,0,.5,1.3,2.11,2.11,0,0,0,1.1.5h5.9a1.59,1.59,0,0,0,1.4-1.4V14a2,2,0,0,0-.3-1,1.88,1.88,0,0,0-1-.4h-5.6q-2.1,0-2.1,1.8v7.9A1.58,1.58,0,0,1,130.6,22.7Zm15.2,0V20.6a6.13,6.13,0,0,1,1-3.8,4,4,0,0,1,3.5-1.7h7.3V13.9a1.14,1.14,0,0,0-.3-.8,1.23,1.23,0,0,0-.8-.4H145.8v-3h10.5a3.88,3.88,0,0,1,4.2,3.3c0,.4.1.6.1.8v9.1a4.65,4.65,0,0,1-.6,2.3,4.27,4.27,0,0,1-3.7,2.3h-5.9a4.84,4.84,0,0,1-4.3-3.1A4.67,4.67,0,0,1,145.8,22.7Zm3.7,1.5a3.42,3.42,0,0,0,1.7.3h4q2.4,0,2.4-1.8V19.8c0-1.1-.7-1.8-2.1-1.9h-4.7c-1.4.2-2.1.8-2.1,1.9v2.9A1.65,1.65,0,0,0,149.5,24.2Zm14.1,3.2V24.5h9a.91.91,0,0,0,.7-.3,2.07,2.07,0,0,0,.5-1.5V21.4a1.53,1.53,0,0,0-1.7-1.7h-4a4.26,4.26,0,0,1-4-1.9,3.45,3.45,0,0,1-.5-1.8V13.7a4.19,4.19,0,0,1,1-3,3.84,3.84,0,0,1,2.9-1.1h9.2v2.9h-9c-.8,0-1.2.4-1.2,1.3v1.3a1.61,1.61,0,0,0,.5,1.1,1.5,1.5,0,0,0,1.1.4h4.4a2,2,0,0,1,.8.1,4.8,4.8,0,0,1,2.5,1.4,3.92,3.92,0,0,1,.9,2.6v2.8a4,4,0,0,1-1.5,3.1,4.57,4.57,0,0,1-2.2.8Zm16,0V24.5h9a.91.91,0,0,0,.7-.3,2.07,2.07,0,0,0,.5-1.5V21.4a1.53,1.53,0,0,0-1.7-1.7h-4a4.26,4.26,0,0,1-4-1.9,3.45,3.45,0,0,1-.5-1.8V13.7a4.19,4.19,0,0,1,1-3,3.84,3.84,0,0,1,2.9-1.1h9.2v2.9h-9c-.8,0-1.2.4-1.2,1.3v1.3a1.61,1.61,0,0,0,.5,1.1,1.5,1.5,0,0,0,1.1.4h4.4a2,2,0,0,1,.8.1,4.8,4.8,0,0,1,2.5,1.4,3.92,3.92,0,0,1,.9,2.6v2.8a4,4,0,0,1-1.5,3.1,4.57,4.57,0,0,1-2.2.8ZM62.5,40H6a6,6,0,0,1-6-6V6A6,6,0,0,1,6,0H61.1A6.91,6.91,0,0,1,68,6.9a6.61,6.61,0,0,1-2.4,5.2h0l2.6,21.5A5.81,5.81,0,0,1,62.5,40ZM52.4,10.1a3.59,3.59,0,0,0-3.6,3.6V17H30.3a10.5,10.5,0,1,0,0,7H53.7a2.05,2.05,0,0,0,2.1-2.1V10.1Zm1.4,2.1H52.5A1.54,1.54,0,0,0,51,13.7v5.4H24.1V16a.59.59,0,0,0-.9-.5L15.4,20a.57.57,0,0,0,0,1l7.8,4.5a.63.63,0,0,0,.9-.5V21.9H53.8Z"/>
</svg>