<svg xmlns="http://www.w3.org/2000/svg" width="415" height="140" viewBox="0 0 415 140">
  <rect width="415" height="140" fill="none"/>
  <path d="M210.8,60.1l-18,42c-0.4,1-1.4,1.7-2.5,1.7s-2.1-0.7-2.5-1.7l-7.5-17.4l-7.5,17.4c-0.4,1-1.4,1.7-2.5,1.7
	s-2.1-0.7-2.5-1.7l-18-42c-0.6-1.4,0-3,1.4-3.6c1.4-0.6,3,0,3.6,1.4l15.5,36.1l7-16.4l-7.5-17.6c-0.6-1.4,0-3,1.4-3.6
	c1.4-0.6,3,0,3.6,1.4l5.5,12.8l5.5-12.8c0.6-1.4,2.2-2,3.6-1.4c1.4,0.6,2,2.2,1.4,3.6l-7.5,17.6l7,16.4L205.7,58
	c0.6-1.4,2.2-2,3.6-1.4C210.7,57.1,211.4,58.7,210.8,60.1z M321.3,60.8c3.4,0,6.7,0.9,9.6,2.6c1.3,0.8,3,0.3,3.8-1
	c0.8-1.3,0.3-3-1-3.8c-3.8-2.2-8-3.3-12.4-3.3c-13.6,0-24.8,11.1-24.8,24.8s11.1,24.8,24.8,24.8c4.3,0,8.6-1.1,12.4-3.3
	c1.3-0.8,1.8-2.4,1-3.8c-0.8-1.3-2.4-1.8-3.8-1c-2.9,1.7-6.3,2.6-9.6,2.6c-10.6,0-19.3-8.6-19.3-19.3S310.6,60.8,321.3,60.8z
	 M248.3,100c0.6,1.4-0.1,3-1.5,3.6c-0.3,0.1-0.7,0.2-1,0.2c-1.1,0-2.1-0.6-2.5-1.7l-4.6-11.5H219l-4.6,11.5
	c-0.6,1.4-2.2,2.1-3.6,1.5c-1.4-0.6-2.1-2.2-1.5-3.6l17-42c0.4-1,1.4-1.7,2.5-1.7s2.1,0.7,2.5,1.7L248.3,100z M236.3,85.1l-7.6-18.7
	l-7.6,18.7H236.3z M378.3,103.6c-0.3,0.1-0.7,0.2-1,0.2c-1.1,0-2.1-0.6-2.5-1.7l-4.6-11.5h-19.6l-4.6,11.5c-0.6,1.4-2.2,2.1-3.6,1.5
	c-1.4-0.6-2.1-2.2-1.5-3.6l17-42c0.4-1,1.4-1.7,2.5-1.7s2.1,0.7,2.5,1.7l17,42C380.4,101.4,379.7,103,378.3,103.6z M367.8,85.1
	l-7.6-18.7l-7.6,18.7H367.8z M288.5,99.5c0.8,1.3,0.5,3-0.8,3.8c-0.5,0.3-1,0.5-1.5,0.5c-0.9,0-1.8-0.4-2.3-1.2l-9.3-13.9
	c-0.6,0.1-1.3,0.1-1.9,0.1H262V101c0,1.5-1.2,2.8-2.8,2.8s-2.8-1.2-2.8-2.8V59c0-1.5,1.2-2.8,2.8-2.8h13.5c9,0,16.3,7.3,16.3,16.3
	c0,6.3-3.6,11.7-8.8,14.4L288.5,99.5z M272.8,83.3c5.9,0,10.8-4.8,10.8-10.8s-4.8-10.8-10.8-10.8H262v21.5H272.8z" fill="#0C152E"/>
  <path d="M119.6,105h-22C90.6,105,85,99.4,85,92.5V70c0-1.4,1.1-2.5,2.5-2.5S90,68.7,90,70v22.5c0,4.1,3.4,7.5,7.5,7.5
	h22c4.2,0,8.2-1.7,11.2-4.7c2.8-2.9,4.4-6.6,4.3-10.6c-0.2-8.1-6.8-14.7-14.9-14.7c-1.4,0.1-2.6-0.9-2.7-2.3
	C116.2,52.2,103.1,40,87.5,40c-12.2,0-23.1,7.3-27.8,18.6c-0.3,0.8-1.1,1.4-2,1.5c-10.3,1.2-18,9.9-17.7,20.4
	c0.3,10.8,9.5,19.5,20.5,19.5h17c1.4,0,2.5,1.1,2.5,2.5s-1.1,2.5-2.5,2.5h-17C46.8,105,35.3,94.1,35,80.7
	c-0.3-12.5,8.5-23.2,20.7-25.2C61.4,43,73.7,35,87.5,35c17.4,0,32.3,13.1,34.7,30.1c9.8,1.1,17.7,9.4,17.8,19.5
	c0.1,5.3-1.9,10.3-5.7,14.2C130.4,102.8,125,105,119.6,105z M109.2,82.5c2.2-3.8,3.3-8.1,3.3-12.5c0-13.8-11.2-25-25-25
	s-25,11.2-25,25c0,4.4,1.2,8.7,3.3,12.5c0.7,1.2,2.2,1.6,3.4,0.9c1.2-0.7,1.6-2.2,0.9-3.4c-1.8-3-2.7-6.5-2.7-10c0-11,9-20,20-20
	s20,9,20,20c0,3.5-0.9,7-2.7,10c-0.7,1.2-0.3,2.7,0.9,3.4c0.4,0.2,0.8,0.3,1.2,0.3C107.9,83.8,108.7,83.3,109.2,82.5z M100.5,77.5
	c1.3-2.3,2-4.9,2-7.5c0-8.3-6.7-15-15-15s-15,6.7-15,15c0,2.6,0.7,5.2,2,7.5c0.7,1.2,2.2,1.6,3.4,0.9s1.6-2.2,0.9-3.4
	c-0.9-1.5-1.3-3.2-1.3-5c0-5.5,4.5-10,10-10s10,4.5,10,10c0,1.8-0.5,3.5-1.3,5c-0.7,1.2-0.3,2.7,0.9,3.4c0.4,0.2,0.8,0.3,1.2,0.3
	C99.2,78.8,100,78.3,100.5,77.5z" fill="#1DA1F2"/>
</svg>
