<svg xmlns="http://www.w3.org/2000/svg" width="182" height="28" viewBox="0 0 182 28"><path d="M55.7,23.56a1.21,1.21,0,0,1-1.29,1.24h-.94v1.68c0,.08-.07.13-.24.13h0c-.17,0-.25-.05-.25-.13V22.56c0-.13.06-.18.18-.18h1.23c.52,0,1.35.16,1.35,1.18m-2.23-.72v1.5h1a.7.7,0,0,0,.73-.78c0-.6-.46-.72-.82-.72Zm7.58,1.64c0,1.41-.65,2.15-1.86,2.15s-1.86-.74-1.86-2.15.65-2.14,1.86-2.14,1.86.72,1.86,2.14m-3.17,0c0,1.1.46,1.7,1.31,1.7s1.31-.6,1.31-1.7S60,22.8,59.19,22.8s-1.31.57-1.31,1.68m9.77-2s0,.06,0,.08l-1,4c0,.08-.12.1-.24.1H66.1c-.13,0-.23,0-.25-.1l-.65-2.45-.13-.78-.13.78-.66,2.45c0,.08-.12.1-.24.1h-.25c-.12,0-.22,0-.24-.1l-1-4s0-.06,0-.08.08-.1.26-.1h.06c.12,0,.23,0,.25.09l.76,3c0,.16.1.54.11.56l.14-.58.73-2.94c0-.08.12-.1.24-.1h.1c.12,0,.21,0,.23.1l.75,3a4.48,4.48,0,0,1,.1.56l.15-.57.73-3c0-.07.12-.09.24-.09h0c.18,0,.26,0,.26.1m4.16.09v.09c0,.13,0,.19-.12.19H69.93v1.37H71.5c.09,0,.12.05.12.18v.1c0,.12,0,.18-.12.18H69.93v1.47h1.76c.09,0,.12.05.12.18v.1c0,.12,0,.18-.12.18H69.58c-.13,0-.18-.06-.18-.18V22.56c0-.13,0-.18.18-.18h2.11c.08,0,.12.05.12.18m4.51.88a1,1,0,0,1-.69,1v0c.25.08.38.35.54.75l.47,1.19a.45.45,0,0,1,0,.08c0,.06-.08.1-.26.1h-.06a.26.26,0,0,1-.24-.1l-.46-1.18a.8.8,0,0,0-.9-.59H74.2v1.74c0,.08-.07.13-.24.13h0c-.17,0-.24-.05-.24-.13V22.56c0-.13,0-.18.18-.18h1c.94,0,1.46.3,1.46,1.06m-2.12-.6v1.44H75a.76.76,0,0,0,.77-.74c0-.49-.33-.7-.82-.7Zm6.62-.28v.09c0,.13,0,.19-.12.19H78.94v1.37h1.58c.08,0,.12.05.12.18v.1q0,.18-.12.18H78.94v1.47h1.77c.08,0,.12.05.12.18v.1q0,.18-.12.18H78.59a.16.16,0,0,1-.18-.18V22.56c0-.13.06-.18.18-.18H80.7c.08,0,.12.05.12.18M86,24.49c0,1.57-.83,2.11-1.87,2.11H82.86a.16.16,0,0,1-.18-.18V22.56c0-.13.06-.18.18-.18h1.22c1,0,1.87.55,1.87,2.11m-2.73-1.65v3.3H84c.76,0,1.36-.45,1.36-1.65s-.6-1.65-1.36-1.65Zm9.5.6a1,1,0,0,1-.66.92v0a1.11,1.11,0,0,1,.85,1c0,.83-.56,1.21-1.58,1.21h-1a.16.16,0,0,1-.18-.18V22.56c0-.13.06-.18.18-.18h1.08c.9,0,1.35.43,1.35,1.06m-2.08-.6V24.2h.7a.77.77,0,0,0,.84-.71c0-.44-.26-.65-.86-.65Zm0,1.82v1.48h.88a.74.74,0,0,0,.84-.78c0-.44-.32-.7-.94-.7Zm6.5-2.29c.17,0,.24,0,.24.1s0,.06,0,.11l-1.27,1.87v2c0,.08-.07.13-.24.13h0c-.17,0-.24-.05-.24-.13V24.43l-1.26-1.85a.25.25,0,0,1,0-.11c0-.07.07-.1.28-.1h.06c.13,0,.21,0,.26.09l1,1.48,1-1.49c0-.07.15-.08.27-.08Zm8.81.1a.31.31,0,0,1,0,.08l-1,4c0,.08-.12.1-.24.1h-.25c-.12,0-.22,0-.24-.1l-.66-2.45-.13-.78-.12.78-.66,2.45c0,.08-.12.1-.24.1h-.25c-.12,0-.22,0-.24-.1l-1-4a.24.24,0,0,1,0-.08c0-.06.07-.1.26-.1h.06c.12,0,.22,0,.24.09l.77,3c0,.16.1.54.1.56l.15-.58.73-2.94c0-.08.11-.1.23-.1h.1c.12,0,.22,0,.24.1l.74,3a5.42,5.42,0,0,1,.11.56l.14-.57.73-3c0-.07.12-.09.24-.09h0c.18,0,.26,0,.26.1m6.62,0a.31.31,0,0,1,0,.08l-1,4c0,.08-.12.1-.24.1H111c-.12,0-.22,0-.24-.1l-.66-2.45-.13-.78-.12.78-.66,2.45c0,.08-.12.1-.24.1h-.25c-.12,0-.22,0-.24-.1l-1-4a.24.24,0,0,1,0-.08c0-.06.08-.1.26-.1h.06c.12,0,.22,0,.24.09l.77,3c0,.16.1.54.1.56l.15-.58.73-2.94c0-.08.12-.1.24-.1h.09c.12,0,.22,0,.24.1l.75,3c0,.21.1.56.1.56l.14-.57.73-3c0-.07.13-.09.25-.09h0c.18,0,.26,0,.26.1M117,23.56a1.21,1.21,0,0,1-1.29,1.24h-.94v1.68c0,.08-.07.13-.24.13h0c-.17,0-.25-.05-.25-.13V22.56c0-.13.06-.18.18-.18h1.23c.52,0,1.35.16,1.35,1.18m-2.23-.72v1.5h1a.7.7,0,0,0,.73-.78c0-.6-.46-.72-.82-.72Zm5.43-.38,1.43,4a.24.24,0,0,1,0,.08c0,.06-.08.1-.26.1h-.05c-.12,0-.22,0-.24-.1l-.36-1H119l-.35,1c0,.08-.12.1-.24.1h0c-.18,0-.26,0-.26-.1a.37.37,0,0,1,0-.09l1.43-4c0-.07.12-.09.24-.09H120c.12,0,.21,0,.24.09m-.34.46a2.58,2.58,0,0,1-.09.35l-.63,1.8h1.44l-.63-1.8a2.21,2.21,0,0,1-.08-.35Zm5.69-.21c0,.09-.13.32-.19.32a1.91,1.91,0,0,0-.79-.23c-.46,0-.78.24-.78.68s.38.56.82.72,1.14.44,1.14,1.26-.53,1.17-1.34,1.17-1.25-.27-1.25-.44.14-.32.21-.32a2.26,2.26,0,0,0,1,.31.72.72,0,0,0,.79-.72c0-.48-.45-.63-.91-.82s-1-.39-1-1.18a1.18,1.18,0,0,1,1.34-1.12c.34,0,1,.15,1,.37m4.14,0c0,.09-.14.32-.2.32a1.85,1.85,0,0,0-.79-.23.69.69,0,0,0-.78.68c0,.44.39.56.82.72s1.15.44,1.15,1.26-.53,1.17-1.35,1.17-1.24-.27-1.24-.44.14-.32.21-.32a2.19,2.19,0,0,0,1,.31.73.73,0,0,0,.8-.72c0-.48-.45-.63-.92-.82s-1.05-.39-1.05-1.18a1.19,1.19,0,0,1,1.34-1.12c.35,0,1,.15,1,.37m6.83-.15v.09c0,.13,0,.19-.12.19h-1.15v3.64c0,.08-.07.13-.24.13h0c-.17,0-.25-.05-.25-.13V22.84h-1.15c-.09,0-.13-.06-.13-.19v-.09c0-.13,0-.18.13-.18h2.83c.08,0,.12.05.12.18m4.17,0v.09c0,.13,0,.19-.12.19h-1.76v1.37h1.57c.09,0,.12.05.12.18v.1c0,.12,0,.18-.12.18h-1.57v1.47h1.76c.09,0,.12.05.12.18v.1c0,.12,0,.18-.12.18H138.5c-.13,0-.18-.06-.18-.18V22.56c0-.13.05-.18.18-.18h2.11c.08,0,.12.05.12.18m4.75.15c0,.11-.13.35-.21.35a1.92,1.92,0,0,0-.93-.26c-1,0-1.42.51-1.42,1.69s.45,1.69,1.4,1.69a2.19,2.19,0,0,0,1-.31c.08,0,.21.26.21.33s-.54.43-1.24.43c-1.33,0-1.95-.67-1.95-2.14s.67-2.15,2-2.15c.59,0,1.15.21,1.15.37m5.14-.21v4c0,.08-.07.13-.24.13h0c-.17,0-.24-.05-.24-.13V24.66H147.9v1.82c0,.08-.07.13-.24.13h0c-.17,0-.24-.05-.24-.13v-4c0-.09.07-.13.24-.13h0c.17,0,.24,0,.24.13v1.7h2.19V22.5c0-.09.07-.13.24-.13h0c.17,0,.24,0,.24.13m5.41,0v4c0,.08-.07.13-.24.13h-.13a.22.22,0,0,1-.21-.09l-2-3-.16-.3v3.26c0,.08-.07.13-.24.13H153c-.17,0-.24-.05-.24-.13v-4c0-.09.07-.13.24-.13h.13a.26.26,0,0,1,.25.11l1.93,2.91.18.33V22.5c0-.09.07-.13.24-.13h0c.17,0,.24,0,.24.13m5.66,2c0,1.41-.65,2.15-1.86,2.15S158,25.89,158,24.48s.65-2.14,1.86-2.14,1.86.72,1.86,2.14m-3.18,0c0,1.1.46,1.7,1.32,1.7s1.31-.6,1.31-1.7-.46-1.68-1.31-1.68-1.32.57-1.32,1.68m5.68-2v3.64h1.65c.09,0,.13.05.13.18v.1c0,.12,0,.18-.13.18h-2a.16.16,0,0,1-.18-.18V22.5c0-.09.08-.13.25-.13h0c.17,0,.25,0,.25.13m6.85,2c0,1.41-.65,2.15-1.86,2.15s-1.86-.74-1.86-2.15.65-2.14,1.86-2.14,1.86.72,1.86,2.14m-3.17,0c0,1.1.46,1.7,1.31,1.7s1.32-.6,1.32-1.7-.47-1.68-1.32-1.68-1.31.57-1.31,1.68m8-1.77c0,.11-.13.35-.21.35a2,2,0,0,0-.93-.26c-1.07,0-1.42.62-1.42,1.67s.27,1.71,1.35,1.71a3.66,3.66,0,0,0,.78-.08V24.88h-.71c-.08,0-.12-.05-.12-.18v-.1q0-.18.12-.18h1.06a.16.16,0,0,1,.18.18v1.6c0,.34-.66.43-1.35.43-1.2,0-1.86-.67-1.86-2.11s.69-2.18,1.95-2.18c.6,0,1.16.21,1.16.37m4.66-.34c.17,0,.24,0,.24.1s0,.06-.05.11l-1.27,1.87v2c0,.08-.07.13-.24.13h-.05c-.17,0-.24-.05-.24-.13V24.43l-1.26-1.85a.25.25,0,0,1,0-.11c0-.07.07-.1.28-.1H178c.13,0,.22,0,.26.09l1,1.48,1-1.49c0-.07.15-.08.27-.08ZM62.3,1.85l5.3,15.46a1.52,1.52,0,0,1,.07.43c0,.34-.36.53-1.2.53H65.41c-.7,0-1.23-.12-1.35-.5l-1-2.94H57.41l-1,2.94c-.12.36-.53.5-1.11.5h-1c-1,0-1.47-.19-1.47-.53a1.65,1.65,0,0,1,.09-.43L58.3,1.85c.15-.39.68-.51,1.37-.51h1.26c.7,0,1.23.12,1.37.51m-2.07,4a9.78,9.78,0,0,1-.36,1.54l-1.42,4.28h3.61L60.69,7.38a12.73,12.73,0,0,1-.37-1.54ZM81.46,2.59v.75c0,.84-.22,1.2-.73,1.2H76.9v13c0,.51-.43.77-1.44.77h-.84c-1,0-1.45-.26-1.45-.77v-13H69.34c-.5,0-.72-.36-.72-1.2V2.59c0-.84.22-1.2.72-1.2H80.73c.51,0,.73.36.73,1.2m10.33-.74,5.3,15.46a2,2,0,0,1,.07.43c0,.34-.36.53-1.21.53h-1c-.7,0-1.23-.12-1.35-.5l-1-2.94H86.9l-1,2.94c-.11.36-.52.5-1.1.5h-1c-1,0-1.47-.19-1.47-.53a1.65,1.65,0,0,1,.09-.43l5.3-15.46c.14-.39.67-.51,1.37-.51h1.26c.69,0,1.22.12,1.37.51m-2.07,4a9.78,9.78,0,0,1-.36,1.54l-1.43,4.28h3.62L90.17,7.38a14.86,14.86,0,0,1-.36-1.54Zm22.85-.19A4.11,4.11,0,0,1,110,9.3l0,.1a4,4,0,0,1,3.25,3.94c0,3.11-1.95,4.89-6,4.89h-5.11c-.67,0-1-.29-1-1V2.35c0-.67.29-1,1-1h4.77c4.07,0,5.69,1.73,5.69,4.26m-7.71-1.13V8.1h1.66c1.45,0,2.24-.79,2.24-1.8,0-1.18-.72-1.78-2.19-1.78Zm0,6.73v3.82h2.36c1.4,0,2.22-.69,2.22-1.94s-.94-1.88-2.61-1.88Zm20.73-9.4,5.3,15.46a1.52,1.52,0,0,1,.07.43c0,.34-.36.53-1.2.53H128.7c-.7,0-1.23-.12-1.35-.5l-1-2.94H120.7l-1,2.94c-.12.36-.53.5-1.11.5h-1c-1,0-1.47-.19-1.47-.53a1.73,1.73,0,0,1,.1-.43l5.3-15.46c.14-.39.67-.51,1.37-.51h1.25c.7,0,1.23.12,1.37.51m-2.07,4a8.78,8.78,0,0,1-.36,1.54l-1.42,4.28h3.61L124,7.38a11,11,0,0,1-.36-1.54Zm21.15-3c0,.65-.75,2.09-1.32,2.09a7.86,7.86,0,0,0-2.68-.6c-1.88,0-2.24.8-2.24,1.35,0,1.32,1.18,1.8,2.58,2.36,2,.81,4.38,1.8,4.38,5.07,0,3.92-2.81,5.27-5.44,5.27-3.66,0-5.66-1.3-5.66-2.12s1-2.14,1.49-2.14,1.62,1.11,3.54,1.11c1,0,2.27-.32,2.27-1.69s-1.9-1.85-3.71-2.69a4.88,4.88,0,0,1-3.25-4.83c0-3.47,2.89-4.86,5.71-4.86,2.55,0,4.33.89,4.33,1.68m17.6,0c0,.68-1,2.26-1.57,2.26a8.72,8.72,0,0,0-3.54-.77c-2.84,0-4.16,1.81-4.16,5.41s1.35,5.49,4.11,5.49a10.75,10.75,0,0,0,3.95-1c.77,0,1.43,1.68,1.43,2.09,0,1.44-3.45,2-5.38,2-5.39,0-7.92-2.72-7.92-8.66,0-5.72,2.7-8.56,8.05-8.56,2.12,0,5,.67,5,1.68m12.95-1,5.3,15.46a2,2,0,0,1,.07.43c0,.34-.36.53-1.21.53h-1.06c-.69,0-1.22-.12-1.34-.5l-1-2.94h-5.68l-1,2.94c-.13.36-.53.5-1.11.5h-1c-1,0-1.47-.19-1.47-.53a1.65,1.65,0,0,1,.09-.43l5.3-15.46c.15-.39.67-.51,1.37-.51h1.25c.7,0,1.23.12,1.38.51m-2.07,4a9.78,9.78,0,0,1-.36,1.54l-1.42,4.28H175L173.6,7.38a12.66,12.66,0,0,1-.36-1.54ZM36.66,8.54h.9v6.75H16.69v2.34a.4.4,0,0,1-.4.4.48.48,0,0,1-.23-.07l-2.77-1.63-2.8-1.65a.39.39,0,0,1-.14-.54A.54.54,0,0,1,10.5,14l2.79-1.64,2.8-1.65a.39.39,0,0,1,.54.14.41.41,0,0,1,.06.2h0v2.35h19V9.48a1,1,0,0,1,1-.94h0ZM39,6.94H36.71a2.55,2.55,0,0,0-2.52,2.54h0v2.4H21.05a7.31,7.31,0,1,0,0,4.87H37.56A1.48,1.48,0,0,0,39,15.29h0V6.94Zm8.24,16.82c0,.14,0,.27,0,.41a3.61,3.61,0,0,1-1.12,2.58A4.41,4.41,0,0,1,43.66,28a4.07,4.07,0,0,1-.5,0h-39a4.08,4.08,0,0,1-2.91-1.22A4.18,4.18,0,0,1,0,23.84H0V4.16H0A4.2,4.2,0,0,1,1.21,1.22,4.07,4.07,0,0,1,4.11,0H42.55a4.72,4.72,0,0,1,3.36,1.41,4.81,4.81,0,0,1,.78,5.73,3.24,3.24,0,0,1-.2.33,4.73,4.73,0,0,1-1,1.11Z" fill="#323d43"/></svg>