<svg xmlns="http://www.w3.org/2000/svg" width="64" height="64" viewBox="0 0 64 64"><path d="M38.3,15.111V27.629l4.374,4.3a1.11,1.11,0,0,0,.48,0L61.981,17.69a2.681,2.681,0,0,0-2.192-2.579Zm0,16.414,3.991,3.517a1.2,1.2,0,0,0,1.24,0C42.853,35.455,61.981,21.2,61.981,21.2V45.758a3.22,3.22,0,0,1-3.406,3.555H38.294V31.526Zm-18.942-5.95a3.366,3.366,0,0,0-2.973,1.755,8.639,8.639,0,0,0-1.1,4.643,8.474,8.474,0,0,0,1.1,4.639,3.344,3.344,0,0,0,5.8.047,8.4,8.4,0,0,0,1.079-4.6,9.161,9.161,0,0,0-1.044-4.786A3.22,3.22,0,0,0,19.355,25.575ZM2,9.286V54.16l34.137,7.158V2.682ZM24.844,39.31A6.767,6.767,0,0,1,19.2,42.159,6.681,6.681,0,0,1,13.667,39.4a11.438,11.438,0,0,1-2.136-7.2A12.292,12.292,0,0,1,13.7,24.63a6.847,6.847,0,0,1,5.75-2.892A6.529,6.529,0,0,1,24.916,24.5,11.812,11.812,0,0,1,27,31.8,12.074,12.074,0,0,1,24.844,39.31Z" fill="#0072c6"/></svg>