<svg xmlns="http://www.w3.org/2000/svg" xmlns:xlink="http://www.w3.org/1999/xlink" width="64" height="64" viewBox="0 0 64 64"><defs><clipPath id="a"><circle cx="32" cy="32" r="30" fill="none"/></clipPath></defs><circle cx="32" cy="33.715" r="30" opacity="0.25" style="isolation:isolate"/><circle cx="32" cy="32" r="30" fill="#e4e4e4"/><g clip-path="url(#a)"><path d="M23.429,19.3A21.273,21.273,0,1,1,2.156,40.571,21.3,21.3,0,0,1,23.429,19.3m0-8.727a30,30,0,1,0,30,30A30,30,0,0,0,23.429,10.571Z" fill="#308ccf"/><path d="M53.429,3.87A21.273,21.273,0,1,1,32.156,25.143,21.3,21.3,0,0,1,53.429,3.87m0-8.727a30,30,0,1,0,30,30A30,30,0,0,0,53.429-4.857Z" opacity="0.25" style="isolation:isolate"/><path d="M53.429,2.155A21.273,21.273,0,1,1,32.156,23.428,21.3,21.3,0,0,1,53.429,2.155m0-8.727a30,30,0,0,0-30,30h0a30,30,0,0,0,30,30h0a30,30,0,0,0,0-60Z" fill="#7bc44f"/></g></svg>