<svg xmlns="http://www.w3.org/2000/svg" width="64" height="64" viewBox="0 0 64 64"><path d="M61.888,35.966l-3.361-10.33L51.876,5.147a1.15,1.15,0,0,0-2.181,0L43.048,25.623h-22.1L14.3,5.147a1.15,1.15,0,0,0-2.181,0L5.478,25.623,2.118,35.966a2.291,2.291,0,0,0,.828,2.558L32,59.638,61.05,38.524a2.294,2.294,0,0,0,.839-2.558" fill="#fc6d26"/><path d="M32.006,59.616h0l11.044-34H20.958Z" fill="#e24329"/><path d="M32,59.618l-11.048-34H5.488Z" fill="#fc6d26"/><path d="M5.475,25.633h0L2.112,35.963a2.291,2.291,0,0,0,.828,2.558L31.992,59.637Z" fill="#fca326"/><path d="M5.479,25.633H20.961L14.3,5.157a1.15,1.15,0,0,0-2.181,0Z" fill="#e24329"/><path d="M32.005,59.618l11.044-34h15.48Z" fill="#fc6d26"/><path d="M58.524,25.633h0l3.364,10.33a2.291,2.291,0,0,1-.828,2.558l-29.054,21.1Z" fill="#fca326"/><path d="M58.534,25.633H43.05L49.7,5.157a1.15,1.15,0,0,1,2.181,0l6.651,20.476Z" fill="#e24329"/></svg>